<svg width="162" height="54" viewBox="0 0 162 54" fill="none" xmlns="http://www.w3.org/2000/svg">
<path d="M20.4143 35.3026C20.2014 35.3026 19.9885 35.2217 19.8241 35.0599C14.7981 30.0698 8.89892 24.4514 4.83498 20.6158C4.46308 20.2624 3.60071 19.4155 3.51716 19.3211C2.16701 17.7539 -0.350047 14.8328 0.0407168 11.623C0.253616 9.87779 1.29925 8.32684 3.15066 7.01325C9.8098 2.29027 22.5002 8.10566 23.0392 8.35382C23.4596 8.54802 23.6401 9.04702 23.4461 9.4678C23.2521 9.88858 22.7535 10.072 22.3331 9.8751C22.2118 9.81846 9.98767 4.22154 4.12083 8.38079C2.67096 9.40846 1.85979 10.5656 1.70618 11.8226C1.40704 14.2879 3.58993 16.8315 4.773 18.2071C4.88079 18.3177 5.57878 19.0109 5.98302 19.3912C10.0523 23.2349 15.965 28.8641 21.0018 33.865C21.3306 34.1913 21.3333 34.7227 21.0072 35.0518C20.8455 35.219 20.6299 35.3026 20.4143 35.3026Z" fill="#9B3A89"/>
<path d="M27.5154 6.55196C27.3348 6.55196 27.1516 6.49262 26.998 6.37394C26.9198 6.3146 19.1611 0.375126 7.26845 1.95035C6.80762 2.00969 6.38721 1.68872 6.32792 1.22748C6.26594 0.768933 6.58933 0.345456 7.05016 0.286115C19.6786 -1.38352 27.7013 4.78792 28.0355 5.05226C28.3993 5.33817 28.464 5.86684 28.1783 6.23098C28.0113 6.44137 27.766 6.55196 27.5154 6.55196Z" fill="#9B3A89"/>
<path d="M4.36335 53.2962C3.88905 53.2962 3.41744 53.1856 3.08327 52.8484C2.79491 52.5544 2.52003 52.0176 2.8542 51.1113C3.21801 50.1268 3.57913 48.9967 3.89713 47.996C4.22861 46.9602 4.51427 46.0647 4.73795 45.5279C5.44132 43.8367 6.50581 43.5265 8.11738 43.0599C8.33027 42.9978 8.55934 42.9304 8.80458 42.8576C10.8069 42.2534 19.8241 39.2675 19.913 39.2378C20.3523 39.0921 20.8266 39.3322 20.9721 39.7719C21.1177 40.2115 20.8778 40.6863 20.4385 40.8319C20.0667 40.956 11.3109 43.8529 9.28697 44.4652C9.03365 44.5407 8.79919 44.6108 8.5809 44.6729C7.00976 45.1287 6.66481 45.2555 6.28214 46.1726C6.08541 46.6419 5.79705 47.5482 5.48983 48.5057C5.17452 49.493 4.8161 50.6096 4.45229 51.6104C4.7083 51.5888 5.07212 51.5132 5.36317 51.4081C5.38203 51.4027 5.3982 51.3973 5.41707 51.3919C5.56529 51.3514 20.1637 47.2434 24.3597 44.5677C26.5021 43.2001 28.7173 40.2601 28.7173 37.7084C28.7173 34.8304 27.4426 33.5114 25.3298 31.332C25.1627 31.1594 24.9903 30.9813 24.8151 30.7979C21.4384 27.2806 17.846 23.971 14.6768 21.0499C12.6583 19.1887 10.9147 17.5811 9.54838 16.2163C7.13912 13.813 7.85597 11.763 8.57012 11.0132C8.89082 10.6787 9.42172 10.6679 9.75589 10.9862C10.0874 11.3018 10.1008 11.8251 9.79362 12.1595C9.6939 12.2782 8.96628 13.26 10.7314 15.0241C12.0735 16.3646 13.8064 17.9614 15.8114 19.8118C18.9968 22.7492 22.608 26.0776 26.0224 29.6327C26.1976 29.8134 26.3674 29.9887 26.5318 30.1614C28.6877 32.3893 30.3909 34.148 30.3909 37.7084C30.3909 40.991 27.8092 44.3573 25.2571 45.9838C20.9048 48.762 6.80765 52.7459 5.89137 53.0022C5.5572 53.1208 4.95624 53.2962 4.36335 53.2962Z" fill="#9B3A89"/>
<path d="M48.6921 32.9804C47.8055 32.6001 47.1048 32.066 46.5928 31.3836C46.0781 30.7012 45.7951 29.9163 45.7412 29.0289H48.2421C48.3122 29.7572 48.6544 30.3506 49.2662 30.8118C49.8779 31.273 50.681 31.505 51.6727 31.505C52.5944 31.505 53.322 31.3 53.8529 30.8927C54.3838 30.4854 54.6506 29.9702 54.6506 29.3499C54.6506 28.7106 54.3677 28.2359 53.799 27.9257C53.2304 27.6155 52.3545 27.308 51.1661 27.0059C50.0854 26.7227 49.2015 26.4341 48.5197 26.1401C47.8379 25.8488 47.2531 25.4118 46.7653 24.8373C46.2775 24.26 46.035 23.5021 46.035 22.5634C46.035 21.819 46.2559 21.1366 46.7006 20.5135C47.1426 19.8931 47.7732 19.3995 48.587 19.0381C49.4036 18.6739 50.3334 18.4932 51.379 18.4932C52.9905 18.4932 54.2949 18.9032 55.2866 19.7178C56.2783 20.5351 56.8119 21.6517 56.882 23.0705H54.462C54.4081 22.3072 54.1035 21.6976 53.5457 21.2337C52.9879 20.7724 52.2387 20.5405 51.2981 20.5405C50.4304 20.5405 49.7378 20.7266 49.223 21.0988C48.7083 21.471 48.4523 21.9592 48.4523 22.5634C48.4523 23.0436 48.6086 23.4374 48.9185 23.7476C49.2284 24.0577 49.6192 24.3059 50.0881 24.492C50.557 24.6781 51.2092 24.8858 52.0419 25.1178C53.0876 25.401 53.9392 25.6815 54.594 25.9566C55.2489 26.2318 55.8121 26.6445 56.281 27.1947C56.75 27.745 56.9952 28.4624 57.0114 29.3499C57.0114 30.1483 56.7904 30.8657 56.3457 31.505C55.9011 32.1443 55.2785 32.646 54.4701 33.0074C53.6643 33.3715 52.7372 33.5523 51.6916 33.5523C50.5813 33.555 49.5788 33.3635 48.6921 32.9804Z" fill="#9B3A89"/>
<path d="M73.4989 18.7305L64.7242 40.1795H62.226L65.0988 33.153L59.2239 18.7305H61.908L66.4813 30.5447L71.0007 18.7305H73.4989Z" fill="#9B3A89"/>
<path d="M87.8549 20.0736C88.9544 21.1472 89.5041 22.6954 89.5041 24.7184V33.3147H87.1111V25.0663C87.1111 23.6125 86.7472 22.4985 86.0223 21.7271C85.2947 20.9556 84.303 20.5699 83.0444 20.5699C81.767 20.5699 80.7537 20.9691 79.9992 21.7675C79.2446 22.5659 78.87 23.7285 78.87 25.2525V33.3147H76.45V18.7331H78.87V20.81C79.3497 20.0655 79.9992 19.4883 80.8238 19.081C81.6485 18.6737 82.5566 18.4687 83.5484 18.4687C85.3189 18.466 86.7553 19.0028 87.8549 20.0736Z" fill="#9B3A89"/>
<path d="M96.643 32.6217C95.5353 32.0013 94.6676 31.1193 94.037 29.9729C93.4091 28.8293 93.0938 27.5022 93.0938 25.9944C93.0938 24.5028 93.4171 23.1865 94.0639 22.0428C94.7107 20.8992 95.5919 20.0199 96.7103 19.4076C97.826 18.7953 99.0765 18.4905 100.459 18.4905C101.841 18.4905 103.092 18.7953 104.208 19.4076C105.323 20.0199 106.205 20.8938 106.854 22.0293C107.501 23.1649 107.824 24.4866 107.824 25.9944C107.824 27.5022 107.493 28.8293 106.827 29.9729C106.161 31.1166 105.264 31.9986 104.129 32.6217C102.995 33.2421 101.736 33.5522 100.354 33.5522C98.9848 33.5549 97.7506 33.2421 96.643 32.6217ZM102.798 30.8118C103.561 30.4045 104.175 29.7922 104.644 28.9749C105.113 28.1576 105.35 27.165 105.35 25.9944C105.35 24.8238 105.118 23.8312 104.658 23.0139C104.197 22.1993 103.593 21.5897 102.849 21.1905C102.106 20.7913 101.297 20.5917 100.429 20.5917C99.5427 20.5917 98.7315 20.7913 97.9958 21.1905C97.2601 21.5897 96.6699 22.1966 96.2279 23.0139C95.7833 23.8312 95.5623 24.8238 95.5623 25.9944C95.5623 27.1839 95.7779 28.1846 96.2145 29.0019C96.6483 29.8192 97.2278 30.4261 97.9554 30.8253C98.683 31.2245 99.4807 31.4241 100.348 31.4241C101.216 31.4241 102.036 31.2218 102.798 30.8118Z" fill="#9B3A89"/>
<path d="M116.103 19.3293C117.052 18.771 118.154 18.4905 119.412 18.4905C120.706 18.4905 121.881 18.8007 122.935 19.421C123.988 20.0414 124.818 20.9154 125.419 22.0428C126.023 23.1703 126.325 24.4785 126.325 25.9674C126.325 27.4402 126.023 28.7537 125.419 29.9055C124.816 31.0599 123.988 31.9554 122.935 32.592C121.881 33.2313 120.706 33.5496 119.412 33.5496C118.17 33.5496 117.076 33.269 116.13 32.7107C115.181 32.1524 114.459 31.4564 113.963 30.623V40.2308H111.543V18.7278H113.963V21.4144C114.443 20.5863 115.154 19.8877 116.103 19.3293ZM123.188 23.0948C122.746 22.2802 122.148 21.6571 121.393 21.2309C120.639 20.8048 119.811 20.5917 118.908 20.5917C118.022 20.5917 117.203 20.8102 116.448 21.2444C115.693 21.6787 115.092 22.3099 114.64 23.1326C114.187 23.9579 113.961 24.9101 113.961 25.9944C113.961 27.0949 114.187 28.0551 114.64 28.8805C115.092 29.7059 115.693 30.3371 116.448 30.7686C117.2 31.2029 118.022 31.4214 118.908 31.4214C119.811 31.4214 120.641 31.2056 121.393 30.7686C122.145 30.3344 122.743 29.7032 123.188 28.8805C123.633 28.0551 123.854 27.0841 123.854 25.9674C123.854 24.8696 123.633 23.9121 123.188 23.0948Z" fill="#9B3A89"/>
<path d="M132.202 32.9804C131.316 32.6001 130.615 32.066 130.103 31.3836C129.588 30.7012 129.305 29.9163 129.251 29.0289H131.75C131.82 29.7572 132.162 30.3506 132.774 30.8118C133.385 31.273 134.189 31.505 135.18 31.505C136.102 31.505 136.83 31.3 137.36 30.8927C137.891 30.4854 138.158 29.9702 138.158 29.3499C138.158 28.7106 137.875 28.2359 137.307 27.9257C136.738 27.6155 135.862 27.308 134.674 27.0059C133.593 26.7227 132.709 26.4341 132.027 26.1401C131.345 25.8488 130.761 25.4118 130.273 24.8373C129.785 24.26 129.543 23.5021 129.543 22.5634C129.543 21.819 129.763 21.1366 130.208 20.5135C130.65 19.8931 131.281 19.3995 132.095 19.0381C132.911 18.6739 133.841 18.4932 134.887 18.4932C136.498 18.4932 137.802 18.9032 138.794 19.7178C139.786 20.5351 140.319 21.6517 140.39 23.0705H137.97C137.916 22.3072 137.611 21.6976 137.053 21.2337C136.495 20.7724 135.746 20.5405 134.806 20.5405C133.938 20.5405 133.245 20.7266 132.731 21.0988C132.216 21.471 131.96 21.9592 131.96 22.5634C131.96 23.0436 132.116 23.4374 132.426 23.7476C132.736 24.0577 133.127 24.3059 133.596 24.492C134.065 24.6781 134.717 24.8858 135.549 25.1178C136.595 25.401 137.447 25.6815 138.102 25.9566C138.756 26.2318 139.32 26.6445 139.789 27.1947C140.258 27.745 140.503 28.4624 140.519 29.3499C140.519 30.1483 140.298 30.8657 139.853 31.505C139.409 32.1443 138.786 32.646 137.978 33.0074C137.172 33.3715 136.245 33.5523 135.199 33.5523C134.089 33.555 133.089 33.3635 132.202 32.9804Z" fill="#9B3A89"/>
<path d="M144.537 15.8848C144.219 15.5665 144.057 15.1754 144.057 14.7142C144.057 14.253 144.216 13.8618 144.537 13.5436C144.855 13.2226 145.246 13.0634 145.707 13.0634C146.149 13.0634 146.526 13.2226 146.836 13.5436C147.146 13.8618 147.302 14.253 147.302 14.7142C147.302 15.1754 147.146 15.5665 146.836 15.8848C146.526 16.2058 146.149 16.3649 145.707 16.3649C145.246 16.3623 144.858 16.2031 144.537 15.8848ZM146.879 18.7305V33.3121H144.459V18.7305H146.879Z" fill="#9B3A89"/>
<path d="M153.684 32.9804C152.797 32.6001 152.096 32.066 151.584 31.3836C151.07 30.7012 150.787 29.9163 150.733 29.0289H153.231C153.301 29.7572 153.643 30.3506 154.255 30.8118C154.867 31.273 155.67 31.505 156.661 31.505C157.583 31.505 158.311 31.3 158.842 30.8927C159.373 30.4854 159.639 29.9702 159.639 29.3499C159.639 28.7106 159.356 28.2359 158.788 27.9257C158.219 27.6155 157.343 27.308 156.155 27.0059C155.074 26.7227 154.19 26.4341 153.508 26.1401C152.827 25.8488 152.242 25.4118 151.754 24.8373C151.266 24.26 151.024 23.5021 151.024 22.5634C151.024 21.819 151.245 21.1366 151.689 20.5135C152.131 19.8931 152.762 19.3995 153.576 19.0381C154.392 18.6739 155.322 18.4932 156.368 18.4932C157.979 18.4932 159.284 18.9032 160.275 19.7178C161.267 20.5351 161.801 21.6517 161.871 23.0705H159.451C159.397 22.3072 159.092 21.6976 158.534 21.2337C157.977 20.7724 157.227 20.5405 156.287 20.5405C155.419 20.5405 154.727 20.7266 154.212 21.0988C153.697 21.471 153.441 21.9592 153.441 22.5634C153.441 23.0436 153.597 23.4374 153.907 23.7476C154.217 24.0577 154.608 24.3059 155.077 24.492C155.546 24.6781 156.198 24.8858 157.031 25.1178C158.076 25.401 158.928 25.6815 159.583 25.9566C160.238 26.2318 160.801 26.6445 161.27 27.1947C161.739 27.745 161.984 28.4624 162 29.3499C162 30.1483 161.779 30.8657 161.334 31.505C160.89 32.1443 160.267 32.646 159.459 33.0074C158.653 33.3715 157.726 33.5523 156.68 33.5523C155.573 33.555 154.57 33.3635 153.684 32.9804Z" fill="#9B3A89"/>
</svg>
